<svg aria-roledescription="er" role="graphics-document document" viewBox="-123.34375 0 715.475830078125 815" style="max-width: 3840px; background-color: white; max-height: 3840px;" xmlns:xlink="http://www.w3.org/1999/xlink" xmlns="http://www.w3.org/2000/svg" width="100%" id="my-svg"><style>#my-svg{font-family:arial,sans-serif;font-size:14px;fill:#333;}@keyframes edge-animation-frame{from{stroke-dashoffset:0;}}@keyframes dash{to{stroke-dashoffset:0;}}#my-svg .edge-animation-slow{stroke-dasharray:9,5!important;stroke-dashoffset:900;animation:dash 50s linear infinite;stroke-linecap:round;}#my-svg .edge-animation-fast{stroke-dasharray:9,5!important;stroke-dashoffset:900;animation:dash 20s linear infinite;stroke-linecap:round;}#my-svg .error-icon{fill:#ffffff;}#my-svg .error-text{fill:#000000;stroke:#000000;}#my-svg .edge-thickness-normal{stroke-width:2px;}#my-svg .edge-thickness-thick{stroke-width:3.5px;}#my-svg .edge-pattern-solid{stroke-dasharray:0;}#my-svg .edge-thickness-invisible{stroke-width:0;fill:none;}#my-svg .edge-pattern-dashed{stroke-dasharray:3;}#my-svg .edge-pattern-dotted{stroke-dasharray:2;}#my-svg .marker{fill:#000000;stroke:#000000;}#my-svg .marker.cross{stroke:#000000;}#my-svg svg{font-family:arial,sans-serif;font-size:14px;}#my-svg p{margin:0;}#my-svg .entityBox{fill:#ffffff;stroke:#000000;}#my-svg .attributeBoxOdd{fill:#ffffff;stroke:#000000;}#my-svg .attributeBoxEven{fill:#f2f2f2;stroke:#000000;}#my-svg .relationshipLabelBox{fill:#ffffff;opacity:0.7;background-color:#ffffff;}#my-svg .relationshipLabelBox rect{opacity:0.5;}#my-svg .relationshipLine{stroke:#000000;}#my-svg .entityTitleText{text-anchor:middle;font-size:18px;fill:#333;}#my-svg #MD_PARENT_START{fill:#f5f5f5!important;stroke:#000000!important;stroke-width:1;}#my-svg #MD_PARENT_END{fill:#f5f5f5!important;stroke:#000000!important;stroke-width:1;}#my-svg .node .neo-node{stroke:#000000;}#my-svg [data-look="neo"].node rect,#my-svg [data-look="neo"].cluster rect,#my-svg [data-look="neo"].node polygon{stroke:url(#my-svg-gradient);filter:drop-shadow( 0px 1px 2px rgba(0, 0, 0, 0.25));}#my-svg [data-look="neo"].node path{stroke:url(#my-svg-gradient);}#my-svg [data-look="neo"].node .outer-path{filter:drop-shadow( 0px 1px 2px rgba(0, 0, 0, 0.25));}#my-svg [data-look="neo"].node .neo-line path{stroke:hsl(0, 0%, 70%);filter:none;}#my-svg [data-look="neo"].node circle{stroke:url(#my-svg-gradient);filter:drop-shadow( 0px 1px 2px rgba(0, 0, 0, 0.25));}#my-svg [data-look="neo"].node circle .state-start{fill:#000000;}#my-svg [data-look="neo"].statediagram-cluster rect{fill:#ffffff;stroke:url(#my-svg-gradient);stroke-width:1px;}#my-svg [data-look="neo"].icon-shape .icon{fill:url(#my-svg-gradient);filter:drop-shadow( 0px 1px 2px rgba(0, 0, 0, 0.25));}#my-svg [data-look="neo"].icon-shape .icon-neo path{stroke:url(#my-svg-gradient);filter:drop-shadow( 0px 1px 2px rgba(0, 0, 0, 0.25));}#my-svg :root{--mermaid-font-family:"trebuchet ms",verdana,arial,sans-serif;}</style><g/><defs><marker orient="auto" markerHeight="240" markerWidth="190" refY="7" refX="0" id="MD_PARENT_START"><path d="M 18,7 L9,13 L1,7 L9,1 Z"/></marker></defs><defs><marker orient="auto" markerHeight="28" markerWidth="20" refY="7" refX="19" id="MD_PARENT_END"><path d="M 18,7 L9,13 L1,7 L9,1 Z"/></marker></defs><defs><marker orient="auto" markerHeight="18" markerWidth="18" refY="9" refX="0" id="ONLY_ONE_START"><path d="M9,0 L9,18 M15,0 L15,18" fill="none" stroke="gray"/></marker></defs><defs><marker orient="auto" markerHeight="18" markerWidth="18" refY="9" refX="18" id="ONLY_ONE_END"><path d="M3,0 L3,18 M9,0 L9,18" fill="none" stroke="gray"/></marker></defs><defs><marker orient="auto" markerHeight="18" markerWidth="30" refY="9" refX="0" id="ZERO_OR_ONE_START"><circle r="6" cy="9" cx="21" fill="white" stroke="gray"/><path d="M9,0 L9,18" fill="none" stroke="gray"/></marker></defs><defs><marker orient="auto" markerHeight="18" markerWidth="30" refY="9" refX="30" id="ZERO_OR_ONE_END"><circle r="6" cy="9" cx="9" fill="white" stroke="gray"/><path d="M21,0 L21,18" fill="none" stroke="gray"/></marker></defs><defs><marker orient="auto" markerHeight="36" markerWidth="45" refY="18" refX="18" id="ONE_OR_MORE_START"><path d="M0,18 Q 18,0 36,18 Q 18,36 0,18 M42,9 L42,27" fill="none" stroke="gray"/></marker></defs><defs><marker orient="auto" markerHeight="36" markerWidth="45" refY="18" refX="27" id="ONE_OR_MORE_END"><path d="M3,9 L3,27 M9,18 Q27,0 45,18 Q27,36 9,18" fill="none" stroke="gray"/></marker></defs><defs><marker orient="auto" markerHeight="36" markerWidth="57" refY="18" refX="18" id="ZERO_OR_MORE_START"><circle r="6" cy="18" cx="48" fill="white" stroke="gray"/><path d="M0,18 Q18,0 36,18 Q18,36 0,18" fill="none" stroke="gray"/></marker></defs><defs><marker orient="auto" markerHeight="36" markerWidth="57" refY="18" refX="39" id="ZERO_OR_MORE_END"><circle r="6" cy="18" cx="9" fill="white" stroke="gray"/><path d="M21,18 Q39,0 57,18 Q39,36 21,18" fill="none" stroke="gray"/></marker></defs><path style="stroke: gray; fill: none;" marker-start="url(#ONLY_ONE_START)" marker-end="url(#ZERO_OR_MORE_END)" d="M221.52,71.666L264.66,83.888C307.799,96.111,394.079,120.555,437.219,141.111C480.359,161.667,480.359,178.333,480.359,186.667L480.359,195" class="er relationshipLine"/><path style="stroke: gray; fill: none;" marker-start="url(#ONLY_ONE_START)" marker-end="url(#ZERO_OR_MORE_END)" d="M448.217,270L441.074,278.333C433.931,286.667,419.645,303.333,412.502,320C405.359,336.667,405.359,353.333,405.359,361.667L405.359,370" class="er relationshipLine"/><path style="stroke: gray; fill: none;" marker-start="url(#ONLY_ONE_START)" marker-end="url(#ZERO_OR_MORE_END)" d="M512.502,270L519.645,278.333C526.788,286.667,541.074,303.333,548.217,326.25C555.359,349.167,555.359,378.333,555.359,407.5C555.359,436.667,555.359,465.833,538.693,490.139C522.026,514.444,488.693,533.889,472.026,543.611L455.359,553.333" class="er relationshipLine"/><path style="stroke: gray; fill: none;" marker-start="url(#ONLY_ONE_START)" marker-end="url(#ZERO_OR_MORE_END)" d="M405.359,445L405.359,453.333C405.359,461.667,405.359,478.333,405.359,495C405.359,511.667,405.359,528.333,405.359,536.667L405.359,545" class="er relationshipLine"/><path style="stroke: gray; fill: none;" marker-start="url(#ONLY_ONE_START)" marker-end="url(#ZERO_OR_MORE_END)" d="M135.588,95L127.603,103.333C119.619,111.667,103.649,128.333,95.664,145C87.68,161.667,87.68,178.333,87.68,186.667L87.68,195" class="er relationshipLine"/><path style="stroke: gray; fill: none;" marker-start="url(#ONLY_ONE_START)" marker-end="url(#ONE_OR_MORE_END)" d="M87.68,270L87.68,278.333C87.68,286.667,87.68,303.333,87.68,320C87.68,336.667,87.68,353.333,87.68,361.667L87.68,370" class="er relationshipLine"/><path style="stroke: gray; fill: none;" marker-start="url(#ONLY_ONE_START)" marker-end="url(#ONE_OR_MORE_END)" d="M405.359,620L405.359,628.333C405.359,636.667,405.359,653.333,375.915,672.283C346.471,691.233,287.583,712.465,258.139,723.081L228.695,733.698" class="er relationshipLine"/><path style="stroke: gray; fill: none;" marker-start="url(#ONLY_ONE_START)" marker-end="url(#ZERO_OR_MORE_END)" d="M121.52,74.894L87.933,86.579C54.346,98.263,-12.827,121.631,-46.413,147.899C-80,174.167,-80,203.333,-80,232.5C-80,261.667,-80,290.833,-80,320C-80,349.167,-80,378.333,-80,407.5C-80,436.667,-80,465.833,-80,495C-80,524.167,-80,553.333,-80,582.5C-80,611.667,-80,640.833,-50.556,666.033C-21.112,691.233,37.776,712.465,67.22,723.081L96.664,733.698" class="er relationshipLine"/><path style="stroke: gray; fill: none;" marker-start="url(#ONLY_ONE_START)" marker-end="url(#ZERO_OR_MORE_END)" d="M207.451,95L215.436,103.333C223.42,111.667,239.39,128.333,247.375,151.25C255.359,174.167,255.359,203.333,255.359,232.5C255.359,261.667,255.359,290.833,255.359,320C255.359,349.167,255.359,378.333,255.359,407.5C255.359,436.667,255.359,465.833,272.026,490.139C288.693,514.444,322.026,533.889,338.693,543.611L355.359,553.333" class="er relationshipLine"/><g transform="translate(121.51953125,20 )" id="entity-USER-6e7e2962-0c6f-577d-a7fd-2ce3a0cfd2c8"><rect height="75" width="100" y="0" x="0" class="er entityBox"/><text style="dominant-baseline: middle; text-anchor: middle; font-size: 12px;" transform="translate(50,37.5)" y="0" x="0" id="text-entity-USER-6e7e2962-0c6f-577d-a7fd-2ce3a0cfd2c8" class="er entityLabel">USER</text></g><g transform="translate(430.359375,195 )" id="entity-STORE-bb477a94-b92a-597f-9184-a9aa41e2b141"><rect height="75" width="100" y="0" x="0" class="er entityBox"/><text style="dominant-baseline: middle; text-anchor: middle; font-size: 12px;" transform="translate(50,37.5)" y="0" x="0" id="text-entity-STORE-bb477a94-b92a-597f-9184-a9aa41e2b141" class="er entityLabel">STORE</text></g><g transform="translate(355.359375,370 )" id="entity-PRODUCT-b14524a1-8e20-5805-a382-423fd1ec339f"><rect height="75" width="100" y="0" x="0" class="er entityBox"/><text style="dominant-baseline: middle; text-anchor: middle; font-size: 12px;" transform="translate(50,37.5)" y="0" x="0" id="text-entity-PRODUCT-b14524a1-8e20-5805-a382-423fd1ec339f" class="er entityLabel">PRODUCT</text></g><g transform="translate(355.359375,545 )" id="entity-VOUCHER-48d11c7f-7cee-5550-a8d6-c52c048a0817"><rect height="75" width="100" y="0" x="0" class="er entityBox"/><text style="dominant-baseline: middle; text-anchor: middle; font-size: 12px;" transform="translate(50,37.5)" y="0" x="0" id="text-entity-VOUCHER-48d11c7f-7cee-5550-a8d6-c52c048a0817" class="er entityLabel">VOUCHER</text></g><g transform="translate(37.6796875,195 )" id="entity-ORDER-36941e20-eb1d-50a3-81c5-00079b43c24a"><rect height="75" width="100" y="0" x="0" class="er entityBox"/><text style="dominant-baseline: middle; text-anchor: middle; font-size: 12px;" transform="translate(50,37.5)" y="0" x="0" id="text-entity-ORDER-36941e20-eb1d-50a3-81c5-00079b43c24a" class="er entityLabel">ORDER</text></g><g transform="translate(20,370 )" id="entity-PAYMENTDETAILS-3be257cc-c6f4-52c9-ab9f-2ab4cda7ab83"><rect height="75" width="135.359375" y="0" x="0" class="er entityBox"/><text style="dominant-baseline: middle; text-anchor: middle; font-size: 12px;" transform="translate(67.6796875,37.5)" y="0" x="0" id="text-entity-PAYMENTDETAILS-3be257cc-c6f4-52c9-ab9f-2ab4cda7ab83" class="er entityLabel">PAYMENTDETAILS</text></g><g transform="translate(96.6640625,720 )" id="entity-VOUCHERUSAGE-48c59bf2-ec15-5bfc-9fe1-eac3b51d2984"><rect height="75" width="132.03125" y="0" x="0" class="er entityBox"/><text style="dominant-baseline: middle; text-anchor: middle; font-size: 12px;" transform="translate(66.015625,37.5)" y="0" x="0" id="text-entity-VOUCHERUSAGE-48c59bf2-ec15-5bfc-9fe1-eac3b51d2984" class="er entityLabel">VOUCHERUSAGE</text></g><rect height="14" width="28.015625" y="107.25663757324219" x="352.1426086425781" class="er relationshipLabelBox"/><text style="text-anchor: middle; dominant-baseline: middle; font-size: 12px;" y="114.25663757324219" x="366.1504211425781" id="rel1" class="er relationshipLabel">owns</text><rect height="14" width="29.796875" y="308.12554931640625" x="399.88726806640625" class="er relationshipLabelBox"/><text style="text-anchor: middle; dominant-baseline: middle; font-size: 12px;" y="315.12554931640625" x="414.78570556640625" id="rel2" class="er relationshipLabel">offers</text><rect height="14" width="34.015625" y="421.5409851074219" x="538.116455078125" class="er relationshipLabelBox"/><text style="text-anchor: middle; dominant-baseline: middle; font-size: 12px;" y="428.5409851074219" x="555.124267578125" id="rel3" class="er relationshipLabel">issues</text><rect height="14" width="48.361328125" y="488" x="381.1783447265625" class="er relationshipLabelBox"/><text style="text-anchor: middle; dominant-baseline: middle; font-size: 12px;" y="495" x="405.3590087890625" id="rel4" class="er relationshipLabel">linked_to</text><rect height="14" width="34.6875" y="132.21311950683594" x="81.39641571044922" class="er relationshipLabelBox"/><text style="text-anchor: middle; dominant-baseline: middle; font-size: 12px;" y="139.21311950683594" x="98.74016571044922" id="rel5" class="er relationshipLabel">places</text><rect height="14" width="19.359375" y="313" x="78.00031280517578" class="er relationshipLabelBox"/><text style="text-anchor: middle; dominant-baseline: middle; font-size: 12px;" y="320" x="87.68000030517578" id="rel6" class="er relationshipLabel">has</text><rect height="14" width="42.046875" y="686.99169921875" x="312.20318603515625" class="er relationshipLabelBox"/><text style="text-anchor: middle; dominant-baseline: middle; font-size: 12px;" y="693.99169921875" x="333.22662353515625" id="rel7" class="er relationshipLabel">used_in</text><rect height="14" width="46.6875" y="388.43939208984375" x="-103.34375" class="er relationshipLabelBox"/><text style="text-anchor: middle; dominant-baseline: middle; font-size: 12px;" y="395.43939208984375" x="-80" id="rel8" class="er relationshipLabel">redeems</text><rect height="14" width="55.375" y="332.75732421875" x="227.67149353027344" class="er relationshipLabelBox"/><text style="text-anchor: middle; dominant-baseline: middle; font-size: 12px;" y="339.75732421875" x="255.35899353027344" id="rel9" class="er relationshipLabel">purchases</text></svg>